<svg viewBox="0 0 85 28" fill="none" xmlns="http://www.w3.org/2000/svg"> <path d="M46.4465 11.8328C46.4676 11.7758 46.4495 11.7098 46.403 11.6708C46.3985 11.6678 45.9799 11.3017 45.9799 10.082V1.93694C45.9799 0.717208 46.4 0.35114 46.4015 0.349639C46.4495 0.310632 46.469 0.246122 46.4495 0.18761C46.4285 0.129099 46.3745 0.0900879 46.313 0.0900879H43.4505C43.389 0.0900879 43.3364 0.129098 43.3154 0.186109C43.2944 0.24312 43.3124 0.30913 43.359 0.348138C43.3635 0.351138 43.782 0.718708 43.782 1.93694V7.31998L39.2572 0.157603C39.2302 0.115595 39.1836 0.0900879 39.1341 0.0900879H36.9242C36.8627 0.0900879 36.8102 0.129098 36.7892 0.186109C36.7682 0.24312 36.7862 0.30913 36.8327 0.348138C36.8372 0.351138 37.2558 0.718708 37.2558 1.93694V10.082C37.2558 11.3017 36.8357 11.6678 36.8342 11.6693C36.7862 11.7083 36.7667 11.7728 36.7877 11.8313C36.8072 11.8899 36.8627 11.9289 36.9242 11.9289H39.7853C39.8468 11.9289 39.8993 11.8899 39.9203 11.8328C39.9413 11.7758 39.9233 11.7098 39.8768 11.6708C39.8723 11.6678 39.4537 11.3017 39.4537 10.082V4.3374C41.9217 8.23365 43.6665 11.0242 43.6665 11.7833C43.6665 11.8629 43.731 11.9289 43.812 11.9289H46.3115C46.3715 11.9289 46.4255 11.8899 46.4465 11.8328Z" fill="#00211A"></path> <path d="M60.741 11.6708C60.693 11.7098 60.6735 11.7743 60.693 11.8328C60.714 11.8914 60.7681 11.9304 60.8296 11.9304H68.6026C68.6821 11.9304 68.7481 11.8659 68.7481 11.7848V9.40088C68.7481 9.33187 68.7001 9.27486 68.6326 9.25986C68.5666 9.24635 68.4975 9.28086 68.469 9.34387C68.4645 9.35287 68.0234 10.262 65.0499 10.262C63.6381 10.262 63.3606 9.88697 63.3606 9.23885V1.93694C63.3606 0.717208 63.7806 0.35114 63.7821 0.349639C63.8301 0.310632 63.8496 0.246122 63.8301 0.18761C63.8091 0.129099 63.7551 0.0900879 63.6936 0.0900879H60.8311C60.7696 0.0900879 60.717 0.129098 60.696 0.186109C60.675 0.24312 60.693 0.30913 60.7395 0.348138C60.744 0.351138 61.1626 0.718708 61.1626 1.93694V10.082C61.1641 11.3017 60.744 11.6678 60.741 11.6708Z" fill="#00211A"></path> <path d="M69.6746 11.6708C69.6266 11.7098 69.6071 11.7743 69.6266 11.8328C69.6476 11.8914 69.7016 11.9304 69.7632 11.9304H72.6257C72.6872 11.9304 72.7397 11.8914 72.7607 11.8343C72.7817 11.7773 72.7637 11.7128 72.7172 11.6723C72.7127 11.6693 72.2941 11.3032 72.2941 10.0835V1.93844C72.2941 0.71871 72.7142 0.35264 72.7157 0.349639C72.7637 0.310632 72.7832 0.246122 72.7637 0.18761C72.7427 0.129099 72.6887 0.0900879 72.6272 0.0900879H69.7647C69.7031 0.0900879 69.6506 0.129098 69.6296 0.186109C69.6086 0.24312 69.6266 0.30913 69.6731 0.348138C69.6776 0.351138 70.0962 0.718708 70.0962 1.93694V10.082C70.0962 11.3017 69.6776 11.6678 69.6746 11.6708Z" fill="#00211A"></path> <path d="M59.3157 6.04595C59.3157 2.49177 56.9588 0.00878906 53.5846 0.00878906C50.2105 0.00878906 47.8535 2.49177 47.8535 6.04595C47.8535 9.60013 50.2105 12.0831 53.5846 12.0831C56.9588 12.0831 59.3157 9.60163 59.3157 6.04595ZM53.5846 10.2032C51.5757 10.2032 50.227 8.53193 50.227 6.04295C50.227 5.39933 50.32 4.79471 50.5015 4.25611C50.542 4.88173 50.7611 5.47734 51.1256 5.90942C51.5367 6.39702 52.0978 6.65507 52.7445 6.65507C53.3491 6.65507 53.9207 6.343 54.2733 5.8194C54.6228 5.3018 54.6963 4.65668 54.4713 4.09407C54.4518 4.04606 54.4083 4.01306 54.3558 4.01006C54.3003 4.00706 54.2552 4.03106 54.2297 4.07607C54.2267 4.08057 53.9297 4.56816 53.1255 4.56816C52.3079 4.56816 51.8803 3.93804 51.8803 3.31692C51.8803 2.92685 52.0408 2.56378 52.3319 2.29523C52.6769 1.97717 53.1885 1.80914 53.8112 1.80914C55.6865 1.80914 56.9453 3.51046 56.9453 6.04295C56.9423 8.53193 55.5935 10.2032 53.5846 10.2032Z" fill="#00211A"></path> <path d="M12.6666 0.347926C12.7147 0.308918 12.7342 0.244408 12.7132 0.185897C12.6936 0.127385 12.6381 0.0883789 12.5766 0.0883789H10.5227C10.4702 0.0883789 10.4207 0.116884 10.3952 0.163393L7.00755 6.31307L3.6199 0.163393C3.5944 0.116884 3.54639 0.0883789 3.49238 0.0883789H1.43848C1.37697 0.0883789 1.32446 0.127384 1.30346 0.184395C1.28245 0.241406 1.30046 0.307421 1.34696 0.346429C1.35146 0.349429 1.77005 0.715499 1.77005 1.93523V10.0803C1.77005 11.3 1.34997 11.6661 1.34847 11.6676C1.30046 11.7066 1.28095 11.7711 1.30046 11.8296C1.31996 11.8881 1.37547 11.9272 1.43698 11.9272H4.25902C4.32054 11.9272 4.37305 11.8881 4.39405 11.8311C4.41505 11.7741 4.39705 11.7081 4.35054 11.6691C4.34604 11.6661 3.92746 11.3 3.92746 10.0803V4.8953L6.88003 10.1628C6.93104 10.2543 7.08107 10.2543 7.13358 10.1628L10.0861 4.8953V10.0803C10.0861 11.3 9.66606 11.6661 9.66456 11.6676C9.61655 11.7066 9.59705 11.7711 9.61806 11.8296C9.63756 11.8881 9.69307 11.9272 9.75458 11.9272H12.5766C12.6381 11.9272 12.6906 11.8881 12.7116 11.8311C12.7327 11.7741 12.7147 11.7081 12.6681 11.6691C12.6636 11.6661 12.2451 11.3 12.2451 10.0803V1.93523C12.2451 0.716999 12.6651 0.350926 12.6666 0.347926Z" fill="#00211A"></path> <path d="M30.2368 12.0938C31.9727 12.0938 33.4745 11.5267 34.7032 10.409C34.7332 10.382 34.7512 10.343 34.7512 10.301V7.58846C34.7512 6.32822 35.1998 5.62158 35.2043 5.61408C35.2328 5.56907 35.2358 5.51206 35.2103 5.46555C35.1848 5.41904 35.1368 5.38903 35.0828 5.38903C33.878 5.38903 33.1009 5.32903 32.4768 5.27952C32.0387 5.24501 31.6606 5.2165 31.251 5.2165C29.8288 5.2165 29.1671 5.99815 29.1401 6.7738C29.1176 7.42793 29.5752 8.12256 30.4919 8.18407C30.5354 8.18707 30.5804 8.16907 30.6104 8.13606C30.6404 8.10156 30.6524 8.05655 30.6449 8.01304C30.6029 7.794 30.6479 7.60346 30.777 7.44743C30.969 7.21489 31.3471 7.06486 31.7401 7.06486H32.5338V8.38961C32.5338 9.28528 31.7506 10.193 30.2519 10.193C28.168 10.193 26.9242 8.64316 26.9242 6.04616C26.9242 3.44916 28.168 1.89936 30.2519 1.89936C31.2435 1.89936 31.9577 2.21742 32.2652 2.79503C32.5068 3.24962 32.4648 3.83623 32.1572 4.29082C32.1317 4.32983 32.1257 4.37934 32.1422 4.42285C32.1587 4.46636 32.1962 4.49936 32.2412 4.51287C32.9449 4.6989 33.683 4.58338 34.1676 4.21131C34.5547 3.91275 34.7602 3.48067 34.7602 2.96007C34.7602 1.50479 33.0904 0 30.2939 0C26.9017 0 24.5312 2.48748 24.5312 6.04766C24.5312 9.60785 26.8792 12.0938 30.2368 12.0938Z" fill="#00211A"></path> <path d="M13.5402 11.9287H16.6638C16.7133 11.9287 16.7598 11.9031 16.7853 11.8626C16.8123 11.8206 16.8153 11.7696 16.7958 11.7246C16.5062 11.0855 16.7118 10.4569 17.1229 9.20563C17.1349 9.16962 17.1484 9.12912 17.1604 9.09161H20.8406C20.8526 9.12912 20.8661 9.16962 20.8781 9.20563C21.2892 10.4569 21.4947 11.084 21.2052 11.7246C21.1841 11.7696 21.1886 11.8221 21.2157 11.8626C21.2427 11.9046 21.2877 11.9287 21.3372 11.9287H24.4608C24.5223 11.9287 24.5763 11.8896 24.5973 11.8311C24.6183 11.7726 24.5988 11.7081 24.5523 11.6691C24.5478 11.6646 24.0272 11.2385 23.7826 10.5409L20.593 1.42213C20.407 0.870027 20.4685 0.421442 20.554 0.335926C20.596 0.293918 20.608 0.232408 20.5855 0.178397C20.563 0.124387 20.5105 0.0883789 20.452 0.0883789H17.5489C17.4904 0.0883789 17.4379 0.124387 17.4154 0.178397C17.3929 0.232408 17.4049 0.295418 17.4469 0.335926C17.5324 0.421442 17.594 0.87003 17.4094 1.42064L14.2198 10.5409C13.9753 11.2385 13.4562 11.6646 13.4502 11.6691C13.4021 11.7081 13.3841 11.7726 13.4052 11.8311C13.4262 11.8896 13.4787 11.9287 13.5402 11.9287ZM19.0012 3.10846L20.2105 7.06322H17.792L19.0012 3.10846Z" fill="#00211A"></path> <path d="M84.6792 11.6706C84.6747 11.6661 84.1556 11.2445 83.9096 10.5424L80.72 1.42213C80.5339 0.870027 80.5955 0.421442 80.681 0.335926C80.723 0.293918 80.735 0.232408 80.7125 0.178397C80.69 0.124387 80.6375 0.0883789 80.579 0.0883789H77.6759C77.6174 0.0883789 77.5649 0.124387 77.5424 0.178397C77.5199 0.232408 77.5319 0.295418 77.5739 0.335926C77.6594 0.421442 77.7209 0.87003 77.5364 1.42064L74.3468 10.5409C74.1022 11.2385 73.5831 11.6646 73.5771 11.6691C73.5291 11.7081 73.5111 11.7726 73.5321 11.8311C73.5531 11.8896 73.6071 11.9287 73.6686 11.9287H76.7922C76.8417 11.9287 76.8867 11.9031 76.9138 11.8626C76.9408 11.8206 76.9438 11.7696 76.9243 11.7246C76.6347 11.084 76.8402 10.4569 77.2513 9.20413C77.2633 9.16812 77.2753 9.12912 77.2888 9.09161H80.969C80.981 9.12912 80.9945 9.16812 81.0065 9.20563C81.4176 10.4569 81.6232 11.0855 81.3336 11.7246C81.3141 11.7696 81.3171 11.8221 81.3441 11.8626C81.3711 11.9046 81.4161 11.9287 81.4656 11.9287H84.5892C84.6507 11.9287 84.7063 11.8896 84.7258 11.8311C84.7453 11.7726 84.7273 11.7096 84.6792 11.6706ZM77.9189 7.06322L79.1282 3.10846L80.3374 7.06322H77.9189Z" fill="#00211A"></path> <path d="M43.3889 27.7255C43.3829 27.7225 42.7828 27.3609 42.2517 26.1562L39.4536 19.8009C40.6884 18.1461 42.1046 16.8514 43.0843 16.4358C43.1473 16.4088 43.1834 16.3413 43.1699 16.2738C43.1564 16.2062 43.0963 16.1582 43.0273 16.1582H39.5001C39.4551 16.1582 39.4116 16.1792 39.3846 16.2152C39.3576 16.2513 39.3486 16.2993 39.3606 16.3428C39.4566 16.6818 38.9976 17.39 38.4154 18.2886C37.9428 19.0178 37.3622 19.9165 36.8581 20.9592V18.0051C36.8581 16.7854 37.2782 16.4193 37.2797 16.4163C37.3277 16.3773 37.3472 16.3128 37.3262 16.2543C37.3067 16.1957 37.2512 16.1567 37.1897 16.1567H34.3272C34.2656 16.1567 34.2131 16.1957 34.1921 16.2528C34.1711 16.3098 34.1891 16.3743 34.2356 16.4148C34.2401 16.4178 34.6587 16.7854 34.6587 18.0051V26.1502C34.6587 27.3699 34.2386 27.736 34.2371 27.7375C34.1891 27.7765 34.1696 27.841 34.1891 27.8995C34.2086 27.958 34.2641 27.997 34.3256 27.997H37.1882C37.2497 27.997 37.3022 27.958 37.3232 27.901C37.3442 27.844 37.3262 27.7795 37.2797 27.739C37.2752 27.736 36.8566 27.3699 36.8566 26.1502C36.8566 24.8554 37.3202 23.4391 38.0134 22.0949L39.6847 26.2702C40.1393 27.4074 39.8887 27.754 39.8902 27.754C39.8512 27.796 39.8407 27.8575 39.8647 27.91C39.8872 27.9625 39.9397 27.997 39.9982 27.997H43.3184C43.3844 27.997 43.4414 27.952 43.4579 27.889C43.4729 27.826 43.4459 27.7585 43.3889 27.7255Z" fill="#00211A"></path> <path d="M63.1154 27.7252C63.1094 27.7222 62.5003 27.3606 61.9452 26.1544L60.2753 22.5237C61.5671 21.9881 62.3322 20.9109 62.3322 19.4871C62.3322 17.8368 60.9715 16.167 58.373 16.167H54.3447C54.2832 16.167 54.2307 16.206 54.2097 16.263C54.1887 16.32 54.2067 16.3845 54.2532 16.425C54.2577 16.428 54.6763 16.7956 54.6763 18.0153V26.1604C54.6763 27.3787 54.2577 27.7357 54.2562 27.7387C54.2067 27.7762 54.1872 27.8422 54.2067 27.9008C54.2262 27.9593 54.2817 27.9998 54.3447 27.9998H57.2178C57.2793 27.9998 57.3333 27.9608 57.3528 27.9023C57.3738 27.8452 57.3543 27.7792 57.3078 27.7402C57.3033 27.7372 56.8847 27.3786 56.8847 26.1619V22.9033H58.0639L59.4127 26.2729C59.8673 27.4102 59.6167 27.7567 59.6182 27.7567C59.5792 27.7987 59.5687 27.8602 59.5927 27.9128C59.6152 27.9653 59.6677 27.9998 59.7262 27.9998H63.0464C63.1124 27.9998 63.1694 27.9548 63.1859 27.8917C63.2009 27.8257 63.1724 27.7582 63.1154 27.7252ZM57.8119 20.9889H56.8847V19.013C56.8847 18.3319 56.8847 17.9898 58.256 17.9898C59.2777 17.9898 59.9378 18.5525 59.9378 19.4241C59.9378 20.5778 58.8396 20.9889 57.8119 20.9889Z" fill="#00211A"></path> <path d="M72.7991 16.1567H69.0633C69.0048 16.1567 68.9508 16.1927 68.9298 16.2483C68.9073 16.3038 68.9208 16.3668 68.9628 16.4073C68.9643 16.4088 69.1308 16.5738 69.1308 16.8139C69.1308 17.2354 68.8263 17.8746 68.4392 18.6832C68.1992 19.1873 67.9171 19.7754 67.6456 20.4491C67.374 19.7769 67.092 19.1873 66.8519 18.6832C66.4663 17.8746 66.1603 17.2354 66.1603 16.8139C66.1603 16.5738 66.3268 16.4088 66.3268 16.4073C66.3703 16.3668 66.3838 16.3038 66.3613 16.2483C66.3388 16.1927 66.2863 16.1567 66.2263 16.1567H62.315C62.2415 16.1567 62.18 16.2122 62.171 16.2843C62.162 16.3578 62.21 16.4253 62.282 16.4418C64.474 16.9654 66.4393 22.71 66.4393 24.2928V24.2943L66.4573 26.1487C66.4573 27.3684 66.0373 27.7345 66.0357 27.736C65.9877 27.775 65.9682 27.8395 65.9877 27.898C66.0087 27.9565 66.0628 27.9955 66.1243 27.9955H68.9868C69.0483 27.9955 69.1008 27.9565 69.1218 27.8995C69.1428 27.8425 69.1248 27.778 69.0783 27.7375C69.0738 27.7345 68.6553 27.3684 68.6553 26.1487V24.2943C68.6553 22.713 70.6281 16.9684 72.8306 16.4433C72.9026 16.4268 72.9491 16.3578 72.9416 16.2858C72.9356 16.2122 72.8726 16.1567 72.7991 16.1567Z" fill="#00211A"></path> <path d="M20.173 21.6611C20.9832 21.226 21.7873 20.3663 21.7873 19.1106C21.7873 17.7528 20.7506 16.1655 17.8281 16.1655H13.7998C13.7383 16.1655 13.6858 16.2045 13.6648 16.2615C13.6438 16.3186 13.6618 16.3831 13.7083 16.4236C13.7128 16.4266 14.1313 16.7941 14.1313 18.0139V26.1589C14.1313 27.3772 13.7128 27.7343 13.7113 27.7373C13.6618 27.7748 13.6423 27.8408 13.6618 27.8993C13.6813 27.9578 13.7368 27.9983 13.7998 27.9983H18.0156C20.116 27.9983 22.5675 27.1341 22.5675 24.7022C22.569 23.3249 21.6208 22.1442 20.173 21.6611ZM16.3413 19.0116C16.3413 18.3304 16.3413 17.9884 17.7125 17.9884C18.9953 17.9884 19.4529 18.7235 19.4529 19.4121C19.4529 20.3558 18.6577 20.9184 17.327 20.9184H16.3413V19.0116ZM17.8866 26.33C16.4448 26.33 16.3413 25.9429 16.3413 25.3068V22.8313H17.717C19.2203 22.8313 20.1175 23.5109 20.1175 24.6497C20.1175 25.6699 19.2413 26.33 17.8866 26.33Z" fill="#00211A"></path> <path d="M52.0417 16.1567H44.3857C44.3242 16.1567 44.2717 16.1957 44.2507 16.2528C44.2297 16.3098 44.2477 16.3743 44.2942 16.4148C44.2987 16.4178 44.7173 16.7854 44.7173 18.0051V26.1502C44.7173 27.3699 44.2972 27.736 44.2957 27.7375C44.2477 27.7765 44.2282 27.841 44.2477 27.8995C44.2687 27.958 44.3227 27.997 44.3842 27.997H52.0402C52.1197 27.997 52.1857 27.9325 52.1857 27.8515V25.4675C52.1857 25.3955 52.1317 25.334 52.0597 25.3235C51.9892 25.3145 51.9202 25.358 51.9007 25.4285C51.8977 25.4375 51.5646 26.3302 48.6031 26.3302C47.1913 26.3302 46.9137 25.9551 46.9137 25.307V22.4715H48.6451C50.4019 22.4715 50.6194 23.0671 50.6209 23.0701C50.6374 23.1346 50.696 23.1781 50.7605 23.1781C50.7665 23.1781 50.7725 23.1781 50.78 23.1766C50.852 23.1676 50.906 23.1061 50.906 23.0326V20.116C50.906 20.044 50.8535 19.9855 50.783 19.975C50.714 19.9615 50.6434 20.008 50.6209 20.0755C50.6194 20.0815 50.4004 20.6771 48.6451 20.6771H46.9137V18.8483C46.9137 18.2001 47.1898 17.8251 48.6031 17.8251C51.119 17.8251 51.9352 18.5272 51.9427 18.5332C51.9847 18.5722 52.0462 18.5827 52.0987 18.5587C52.1512 18.5362 52.1857 18.4837 52.1857 18.4252V16.3008C52.1872 16.2227 52.1227 16.1567 52.0417 16.1567Z" fill="#00211A"></path> <path d="M32.8334 26.6107L29.6438 17.492C29.4578 16.9399 29.5193 16.4898 29.6048 16.4043C29.6468 16.3623 29.6588 16.3008 29.6363 16.2468C29.6138 16.1927 29.5613 16.1567 29.5028 16.1567H26.5997C26.5412 16.1567 26.4887 16.1927 26.4662 16.2468C26.4437 16.3008 26.4557 16.3638 26.4977 16.4043C26.5832 16.4898 26.6447 16.9399 26.4602 17.4905L23.2706 26.6107C23.026 27.3084 22.5069 27.7345 22.5009 27.739C22.4529 27.778 22.4349 27.8425 22.4559 27.901C22.4769 27.9595 22.5309 27.9985 22.5925 27.9985H25.7161C25.7656 27.9985 25.8121 27.973 25.8376 27.9325C25.8646 27.8905 25.8676 27.838 25.8481 27.7945C25.5585 27.1538 25.7641 26.5267 26.1751 25.2755C26.1871 25.2395 26.2006 25.199 26.2127 25.1615H29.8929C29.9049 25.199 29.9184 25.2395 29.9304 25.2755C30.3415 26.5267 30.547 27.1538 30.2574 27.7945C30.2364 27.8395 30.2409 27.892 30.2679 27.9325C30.2949 27.9745 30.34 27.9985 30.3895 27.9985H33.5131C33.5746 27.9985 33.6286 27.9595 33.6496 27.901C33.6706 27.8425 33.6511 27.778 33.6046 27.739C33.5971 27.7345 33.078 27.3084 32.8334 26.6107ZM26.8413 23.1316L28.0505 19.1768L29.2597 23.1316H26.8413Z" fill="#00211A"></path> <path d="M84.7285 23.5276C84.7285 24.2148 84.3234 24.8869 83.4532 24.8869C82.469 24.8869 82.0234 24.1158 82.0234 22.953C82.0234 21.7723 82.5755 20.9006 83.6408 20.9006C83.9528 20.9006 84.1808 20.9561 84.4869 21.1032V21.8233C84.3129 21.6298 84.0473 21.4077 83.6633 21.4077C83.1427 21.4077 82.6056 21.8353 82.5981 22.8075C82.7706 22.4864 83.1201 22.2839 83.5237 22.2839C84.2859 22.2854 84.7285 22.9095 84.7285 23.5276ZM84.1358 23.5907C84.1358 23.0971 83.8193 22.797 83.4292 22.797C83.0451 22.797 82.7286 23.0971 82.7286 23.5907C82.7286 24.0842 83.0451 24.3798 83.4292 24.3798C83.8208 24.3798 84.1358 24.0842 84.1358 23.5907Z" fill="#00211A"></path> <path d="M78.5586 22.2616C78.5586 21.5745 78.9637 20.9023 79.8338 20.9023C80.818 20.9023 81.2636 21.6735 81.2636 22.8362C81.2636 24.0169 80.7115 24.8886 79.6463 24.8886C79.3342 24.8886 79.1062 24.8331 78.8001 24.6861V23.9659C78.9742 24.1595 79.2397 24.3815 79.6238 24.3815C80.1444 24.3815 80.6815 23.9539 80.689 22.9817C80.5165 23.3028 80.1669 23.5053 79.7633 23.5053C79.0027 23.5038 78.5586 22.8797 78.5586 22.2616ZM79.1527 22.1986C79.1527 22.6922 79.4693 22.9922 79.8593 22.9922C80.2434 22.9922 80.56 22.6922 80.56 22.1986C80.56 21.705 80.2434 21.4094 79.8593 21.4094C79.4678 21.4094 79.1527 21.705 79.1527 22.1986Z" fill="#00211A"></path> <path d="M75.0938 22.2616C75.0938 21.5745 75.4988 20.9023 76.369 20.9023C77.3532 20.9023 77.7988 21.6735 77.7988 22.8362C77.7988 24.0169 77.2467 24.8886 76.1815 24.8886C75.8694 24.8886 75.6414 24.8331 75.3353 24.6861V23.9659C75.5093 24.1595 75.7749 24.3815 76.159 24.3815C76.6796 24.3815 77.2167 23.9539 77.2242 22.9817C77.0516 23.3028 76.7021 23.5053 76.2985 23.5053C75.5378 23.5038 75.0938 22.8797 75.0938 22.2616ZM75.6879 22.1986C75.6879 22.6922 76.0044 22.9922 76.3945 22.9922C76.7786 22.9922 77.0951 22.6922 77.0951 22.1986C77.0951 21.705 76.7786 21.4094 76.3945 21.4094C76.0029 21.4094 75.6879 21.705 75.6879 22.1986Z" fill="#00211A"></path> <path d="M74.216 20.8916L73.4434 21.1737C73.4434 21.1737 73.6234 21.2922 73.6234 21.7858V24.3603C73.6234 24.6318 73.5064 24.8584 73.5064 24.8584H74.3315C74.3315 24.8584 74.2145 24.6318 74.2145 24.3603V20.8916H74.216Z" fill="#00211A"></path> <path d="M4.63841 21.8908C4.63841 21.6133 4.88596 21.4137 5.27004 21.4137C5.73513 21.4137 6.00068 21.6418 6.19872 21.8443V21.0147C5.98868 21.0552 5.75013 20.8901 5.27004 20.8901C4.60091 20.8901 4.0368 21.3012 4.0368 21.9088C4.0368 23.1031 5.93016 22.869 5.93016 23.7722C5.93016 24.1218 5.62711 24.3603 5.19952 24.3603C4.61141 24.3603 4.22133 23.9642 4.0293 23.6777V24.5238C4.27084 24.7129 4.63691 24.8869 5.18152 24.8869C6.21672 24.8869 6.50328 24.2313 6.50328 23.7242C6.50028 22.3709 4.63841 22.626 4.63841 21.8908Z" fill="#00211A"></path> <path d="M1.24434 21.4334C1.24434 21.4334 1.92097 21.4334 2.23903 21.4334C2.5811 21.4334 2.88115 21.5504 2.88115 21.5504L2.76413 20.9353H0.533203C0.533203 20.9353 0.650225 21.1558 0.650225 21.4334C0.650225 21.711 0.650225 24.0889 0.650225 24.3605C0.650225 24.632 0.533203 24.8586 0.533203 24.8586H2.76413L2.88115 24.2434C2.88115 24.2434 2.5976 24.3605 2.23903 24.3605C1.91947 24.3605 1.24434 24.3605 1.24434 24.3605V23.0252C1.24434 23.0252 1.64492 23.0252 1.92997 23.0252C2.26904 23.0252 2.51058 23.1422 2.51058 23.1422V22.4056C2.51058 22.4056 2.26304 22.5226 1.92997 22.5226C1.64492 22.5226 1.24434 22.5226 1.24434 22.5226V21.4334Z" fill="#00211A"></path> <path d="M9.03532 24.8583C9.03532 24.8583 8.91829 24.6317 8.91829 24.3602V21.4241H9.36838C9.72845 21.4241 10.0105 21.5411 10.0105 21.5411L9.89348 20.926H7.34749L7.23047 21.5411C7.23047 21.5411 7.51402 21.4241 7.87259 21.4241H8.32268V24.3602C8.32268 24.6317 8.20566 24.8583 8.20566 24.8583H9.03532Z" fill="#00211A"></path> <path d="M10.4 24.8885C10.5972 24.8885 10.7571 24.7286 10.7571 24.5314C10.7571 24.3342 10.5972 24.1743 10.4 24.1743C10.2028 24.1743 10.043 24.3342 10.043 24.5314C10.043 24.7286 10.2028 24.8885 10.4 24.8885Z" fill="#00211A"></path> </svg>